# xmcd
#
# Track frame offsets:
#	150
#	16813
#	28516
#	35747
#	45611
#	74088
#	83938
#	95558
#	110438
#	122355
#	133250
#	146402
#	158523
#	170143
#	184605
#	196002
#	208597
#	218921
#
# Disc length: 3103
#
# Revision: 2
# Processed by: cddbd v1.5.1PL0 Copyright (c) Steve Scherf et al.
# Submitted via: FreeRIP 2.51 
# Normalized: r0:TSWAP
#
DISCID=fd0c1d12
DTITLE=Soul Music Collection - 1. - I Pionieri
DYEAR=1900
DGENRE=
TTITLE0=Mahalia Jackson - Nobody Knows The Troubles I've Seen
TTITLE1=Arthur Lee Maye and The Crowns - Gloria
TTITLE2=Maurice Williams and The Zodiacs - Stay
TTITLE3=Sam Cooke - I'll Come Running Back To You
TTITLE4=Ray Charles - What'd I Say
TTITLE5=Larry Williams - Dizzy, Miss Lizzy
TTITLE6=The Platters - The Great Pretender
TTITLE7=Lionel Hampton and His Orchestra - Hey! Ba-Ba-Re-Bop
TTITLE8=Bobby Bland - Pity The Fool
TTITLE9=Lloyd Price - Lawdy Miss Clawdy
TTITLE10=Bo Diddley - I'm A Man
TTITLE11=Albert King - You Threw Your Love On Me Too Strong
TTITLE12=Wynona Carr - Should I Ever Love Again?
TTITLE13=Cab Calloway - Minnie The Moocher
TTITLE14=Sam Cooke (with The Soul Stirrer) - Pilgrim Of Sorrow
TTITLE15=Percy Myfield - Cry Baby
TTITLE16=Fat Domino - Blueberry Hill
TTITLE17=Muddy Waters - Rolling Stone
EXTD=
EXTT0=
EXTT1=
EXTT2=
EXTT3=
EXTT4=
EXTT5=
EXTT6=
EXTT7=
EXTT8=
EXTT9=
EXTT10=
EXTT11=
EXTT12=
EXTT13=
EXTT14=
EXTT15=
EXTT16=
EXTT17=
PLAYORDER=
